<svg width="106" height="47" viewBox="0 0 106 47" fill="none" xmlns="http://www.w3.org/2000/svg">
<path d="M62.9074 23.1232C62.9074 23.5001 62.8955 23.8769 62.9074 24.2544C63.0396 28.0888 61.8122 31.5433 59.8413 34.8008C59.1806 35.8931 58.549 37.0041 57.9799 38.1452C57.5103 39.0833 56.8579 39.7408 55.843 40.1253C55.2763 40.3392 54.7507 40.7103 54.2757 41.0924C52.0887 42.8533 49.6077 44.1144 46.954 45.0027C45.1915 45.5924 43.3766 46.1113 41.4616 46.0881C40.8908 46.0817 40.3187 46.2528 39.7467 46.2545C39.1747 46.2563 38.6032 46.0754 38.0365 46.0991C35.5674 46.2023 33.2799 45.4613 31.009 44.6838C28.5303 43.8361 26.3416 42.4967 24.2826 40.9005C21.3772 38.649 19.3069 35.8131 17.7848 32.5667C16.9645 30.8168 16.2967 29.0107 16.108 27.0689C16.0764 26.7465 15.9669 26.4276 15.8699 26.1151C15.1794 23.9367 15.5764 21.8006 16.0038 19.6303C16.3306 17.9703 16.6669 16.3306 17.3032 14.7546C18.9854 10.5863 21.6569 7.17291 25.357 4.49182C28.4416 2.25893 31.8941 0.886496 35.6478 0.296819C39.955 -0.379831 44.1599 0.107218 48.2398 1.68839C50.2756 2.47984 52.1964 3.48235 53.8739 4.80956C55.4388 6.04747 56.8501 7.49587 58.1835 8.97615C59.3919 10.3179 60.2496 11.9158 61.0157 13.5463C62.2122 16.0934 62.992 18.7299 62.9128 21.5623C62.8955 22.0859 62.908 22.6048 62.9074 23.1232ZM61.2538 17.9628C61.1348 17.0728 61.0604 16.0413 60.8371 15.0405C60.2014 12.1605 58.4912 9.91256 56.212 8.07685C54.9179 7.03317 53.5072 6.12633 52.1167 5.20384C51.6458 4.89131 51.0988 4.6043 50.5488 4.50805C49.135 4.25409 47.7052 4.01694 46.2725 3.94563C43.7855 3.82213 41.5515 3.1965 39.6741 1.51038C38.2919 0.270147 36.7871 0.150124 35.3507 1.24193C33.7227 2.4781 31.8697 3.20404 29.981 3.92243C28.597 4.44891 27.2642 5.11222 25.9332 5.76742C24.8213 6.31593 24.1737 7.17117 24.1891 8.46649C24.1981 9.193 23.8564 9.80007 23.1665 10.2025C22.5908 10.5401 22.0378 10.9133 21.5111 11.3198C20.039 12.4493 18.892 13.7214 18.6443 15.6957C18.4485 17.2571 17.964 18.8006 16.8663 20.0867C16.4996 20.5292 16.2722 21.0657 16.2115 21.6313C16.1103 22.7985 16.152 23.9796 16.1818 25.1537C16.1901 25.468 16.33 25.8049 16.4949 26.0814C16.874 26.7349 17.2869 27.3693 17.7318 27.9821C18.8092 29.4426 19.7462 30.9392 19.9628 32.7946C20.1724 34.592 21.0629 36.0567 22.5695 37.1745C24.7517 38.7946 26.8553 40.5143 29.0702 42.092C30.2607 42.942 31.5352 43.6854 33.1054 43.8576C34.6757 44.0298 36.2151 44.4467 37.6228 45.2178C37.918 45.3728 38.2416 45.4696 38.5752 45.5025C40.5616 45.7112 42.4003 45.2317 44.1444 44.3255C44.6915 44.0414 45.2546 43.7833 45.8207 43.5363C47.1838 42.9414 48.6952 42.5506 49.8827 41.7221C51.2036 40.7984 52.6161 40.3885 54.1322 40.1305C54.787 40.0186 55.3227 39.7553 55.7489 39.2805C56.2579 38.7169 56.7287 38.1208 57.2591 37.5764C57.8073 37.0145 58.2032 36.4167 58.299 35.616C58.446 34.3885 58.9847 33.3048 59.6681 32.2635C60.8252 30.5043 61.483 28.5602 61.8253 26.4931C61.9152 25.951 61.9663 25.4923 61.6907 25.0151C60.8943 23.6381 61.2193 22.0743 60.9675 20.6085C60.8401 19.8159 61.1336 18.9491 61.2568 17.961L61.2538 17.9628ZM51.6673 4.20539C51.3309 3.843 51.2244 3.67891 51.072 3.57744C50.797 3.3919 50.497 3.24057 50.2047 3.07996C47.7047 1.70694 44.9665 1.03957 42.1688 0.560056C41.6069 0.463226 41.0158 0.506713 40.4426 0.528167C40.2931 0.533385 40.1152 0.67486 40.0205 0.80242C39.9771 0.860402 40.0747 1.06334 40.1574 1.16017C40.7797 1.8832 41.5914 2.42859 42.5063 2.73844C44.0857 3.29268 45.7461 3.59669 47.4243 3.6389C48.135 3.65804 48.844 3.78907 49.5517 3.88301C50.1553 3.9665 50.7583 4.06681 51.6673 4.20539ZM30.4268 43.7746C28.7488 42.4376 27.2779 41.2426 25.7808 40.0794C24.5415 39.1169 23.2754 38.1869 22.0087 37.2586C21.8665 37.1543 21.642 37.1572 21.3307 37.0789C22.857 39.5767 27.9535 43.3717 30.4268 43.7746ZM19.1211 12.5739C20.1331 11.8202 21.0694 11.027 22.0974 10.3706C23.5385 9.45508 24.0897 8.31689 23.7492 6.3629C22.7266 7.17813 21.9974 8.16034 21.2087 9.05269C20.3753 9.99373 19.7575 11.1145 19.0628 12.1681C19.0092 12.2533 19.0961 12.4214 19.1211 12.5739ZM53.25 41.0808C52.306 41.0176 51.3553 41.1799 50.7631 41.6769C49.6392 42.6191 48.3023 43.0928 46.9421 43.5642C46.2278 43.8112 45.5546 44.1741 44.882 44.5203C44.7891 44.5678 44.7718 44.8224 44.7909 44.9725C44.7974 45.023 45.0492 45.1059 45.1528 45.0717C46.3743 44.6658 47.6362 44.3388 48.7928 43.7961C50.2113 43.1328 51.5428 42.2926 52.9 41.5133C53.0423 41.4356 53.1173 41.2518 53.25 41.0808ZM17.1842 28.0151C16.9128 28.795 16.9663 29.227 17.1372 29.6867C17.6104 30.9624 17.8979 32.3087 18.7509 33.4231C19.067 33.8365 19.1319 34.7608 19.7152 34.5613C20.2289 34.3873 19.6277 33.6556 19.5926 33.1622C19.4581 31.2772 18.4414 29.7581 17.1842 28.0151ZM26.341 4.5411L26.4678 4.72722C27.1731 4.4721 27.8851 4.2309 28.5833 3.9578C30.1008 3.36446 31.6135 2.76009 33.1215 2.14471C33.4257 2.01946 33.7043 1.81885 33.9638 1.61591C34.0364 1.55793 34.0233 1.36311 34.0007 1.24251C33.9888 1.18858 33.8453 1.13002 33.7626 1.12654C33.6211 1.12955 33.4808 1.1522 33.3459 1.1938C31.2959 1.76144 29.3625 2.6016 27.5124 3.62151C27.0797 3.86039 26.7285 4.23148 26.341 4.5411ZM62.3449 24.7855C62.4687 24.6452 62.5658 24.5866 62.5723 24.5205C62.7723 22.4668 62.5491 20.4317 62.2604 18.4017C62.2461 18.2997 62.1009 18.1535 62.0021 18.1414C61.8931 18.1275 61.7235 18.2156 61.6574 18.3107C61.5488 18.4612 61.4812 18.6362 61.461 18.8192C61.3522 20.4933 61.4654 22.1742 61.7979 23.8201C61.8634 24.1524 62.1455 24.4446 62.3449 24.7855ZM16.6889 19.1184C17.489 18.8209 17.6086 18.2823 17.6943 17.7964C17.9033 16.6106 18.4259 15.4696 18.2533 14.216C17.4169 15.7119 16.6752 17.2276 16.6895 19.1184H16.6889ZM36.0514 45.1477C34.2579 44.3742 33.7715 44.293 32.1751 44.5099C32.8519 44.7598 33.4608 45.1569 34.0733 45.1633C34.712 45.1726 35.4037 45.9351 36.052 45.1477H36.0514Z" fill="#3C322D"/>
<path d="M39.7497 29.7668C38.5234 29.7453 37.6812 29.2449 37.0573 28.2784C36.4764 27.3767 35.5097 26.9088 34.6245 26.3534C33.5084 25.6535 32.6007 24.8638 32.3429 23.445C32.1643 22.4831 32.3721 21.6475 32.7727 20.888C33.109 20.2531 33.709 19.6634 34.3394 19.2859C35.0228 18.8766 35.5894 18.4904 35.9049 17.7343C36.2621 16.8646 37.1621 16.8118 37.9591 16.6553C38.7098 16.508 39.4729 16.4135 40.2128 16.2291C41.2247 15.9775 42.1432 16.0552 42.8825 16.8234C43.4539 17.4195 44.1212 17.8468 44.8653 18.2086C45.6391 18.5843 45.8945 19.0233 45.6522 19.8083C45.4873 20.3412 45.6469 20.7042 45.8504 21.1298C46.0731 21.5936 46.3022 22.065 46.4552 22.555C46.9647 24.1854 46.3784 25.5578 44.8093 26.2838C43.8367 26.7337 43.092 27.3333 42.8498 28.3879C42.7527 28.813 42.4807 29.0542 42.0962 29.1643C41.32 29.3858 40.5324 29.5685 39.7497 29.7668ZM44.8974 22.9313C44.9224 20.0588 42.689 17.7622 39.7848 17.7587C37.1788 17.7587 34.5573 19.4779 34.4555 22.7724C34.3739 25.4094 36.627 27.8655 39.5639 27.8748C43.1408 27.8922 44.8278 25.4709 44.8974 22.9313ZM34.4269 25.6773C34.4269 25.3091 34.4632 25.1207 34.4216 24.9508C34.0364 23.3905 33.7858 21.8453 34.6597 20.3424C34.7227 20.2345 34.5775 20.0119 34.5287 19.8426C34.3573 19.8965 34.1501 19.9075 34.0203 20.0113C32.5769 21.1663 31.9328 23.9396 34.4269 25.6773ZM39.7878 17.038C40.3919 17.2537 40.7366 17.4067 41.0973 17.5018C42.4277 17.8451 43.5629 18.462 44.3528 19.5996C44.5087 19.8234 44.7099 20.1562 45.0075 19.9011C45.1659 19.7649 45.2177 19.3486 45.1266 19.1404C45.0034 18.8638 44.7236 18.5188 44.4546 18.4643C43.7236 18.3153 43.3236 17.7993 42.8474 17.3493C42.0462 16.5996 41.1515 16.3642 39.7878 17.038ZM39.7056 28.3445L39.6878 28.236C39.3044 28.236 38.9175 28.2041 38.5401 28.2494C38.3461 28.2726 38.1699 28.4332 37.9859 28.5317C38.1532 28.6761 38.299 28.9034 38.4919 28.9504C39.5229 29.2038 40.5622 29.2583 41.5789 28.8704C41.7527 28.8037 41.9462 28.7167 42.0551 28.5804C42.1515 28.4645 42.1831 28.2586 42.1634 28.1027C42.1557 28.0447 41.9152 27.9571 41.7962 27.9757C41.0979 28.0824 40.4027 28.2169 39.7086 28.3427L39.7056 28.3445ZM44.9784 25.3984C45.6927 25.2691 46.0117 24.8766 46.0534 24.273C46.0843 23.7642 46.0767 23.254 46.0308 22.7463C46.0195 22.6124 45.8278 22.4929 45.7189 22.3665C45.5599 22.5132 45.2373 22.7103 45.2665 22.7985C45.5564 23.6792 44.9504 24.4678 44.9784 25.3967V25.3984Z" fill="#3C322D"/>
<path d="M51.5125 29.3754C51.4714 29.3957 51.3059 29.5308 51.1268 29.5493C50.9637 29.5679 50.7256 29.5145 50.6244 29.4032C50.1166 28.8449 49.6237 28.2708 49.1696 27.6707C49.0505 27.5136 49.0017 27.0909 49.0696 27.0544C49.2928 26.9343 49.7291 26.8091 49.8261 26.9129C50.4006 27.5304 50.9059 28.2094 51.425 28.875C51.4756 28.9417 51.4601 29.0559 51.5125 29.3754Z" fill="#3C322D"/>
<path d="M27.1946 34.2117C27.4601 34.2325 27.9845 34.2482 28.4958 34.3334C28.6232 34.3549 28.7934 34.5978 28.7934 34.7428C28.7934 34.8877 28.6464 35.1382 28.519 35.1689C27.5249 35.4096 26.5356 35.4687 25.6558 34.8211C25.6061 34.7759 25.5677 34.7204 25.5435 34.6586C25.5192 34.5968 25.5098 34.5304 25.516 34.4645C25.535 34.3676 25.6892 34.2325 25.7927 34.2256C26.1743 34.1943 26.5571 34.2117 27.1946 34.2117Z" fill="#3C322D"/>
<path d="M58.3454 13.8217L58.7216 14.0223C58.6151 14.2084 58.5496 14.5076 58.3942 14.5616C57.6784 14.818 56.944 15.0223 56.1971 15.1727C55.9823 15.2139 55.6703 15.008 55.4721 14.8381C55.2435 14.6416 55.3799 14.2148 55.668 14.1719C56.515 14.0449 57.368 13.9475 58.3454 13.8217Z" fill="#3C322D"/>
<path d="M33.0418 38.3632C33.4394 38.5441 33.7721 38.5951 33.9346 38.7882C34.3796 39.3263 34.7867 39.8931 35.1531 40.4847C35.3317 40.7665 35.1686 41.0715 34.868 41.1527C34.7031 41.1973 34.4043 41.0663 34.2829 40.9208C33.7976 40.3514 33.348 39.754 32.9364 39.132C32.8411 38.9842 32.9888 38.6873 33.0418 38.3632Z" fill="#3C322D"/>
<path d="M48.6434 15.9259C48.6684 15.7612 48.6434 15.5728 48.7225 15.5003C48.8297 15.4052 49.0594 15.3263 49.1696 15.3779C49.3202 15.4481 49.4178 15.6406 49.5214 15.7919C49.8095 16.2129 50.0946 16.6361 50.369 17.0675C50.4916 17.2606 50.6565 17.4664 50.6666 17.6746C50.6785 17.8671 50.5583 18.117 50.4095 18.2492C50.3267 18.3234 49.9857 18.2753 49.9017 18.1727C49.3517 17.4914 48.6922 16.8536 48.6434 15.9259Z" fill="#3C322D"/>
<path d="M50.3547 8.6874C50.2357 9.38318 50.188 9.89516 50.0494 10.3857C49.9624 10.6507 49.7967 10.8846 49.5731 11.0577C49.4154 11.1818 49.1404 11.1638 48.9184 11.209C48.9005 11.0067 48.8356 10.7956 48.8731 10.6037C48.9892 10.0111 49.1446 9.42551 49.2839 8.83757C49.2946 8.79177 49.2916 8.74306 49.3053 8.69841C49.4148 8.34356 49.6517 8.07337 50.0309 8.22006C50.222 8.29428 50.3113 8.61956 50.3547 8.6874Z" fill="#3C322D"/>
<path d="M40.0914 13.2123C40.4259 13.2529 40.8586 13.2749 41.2717 13.3723C41.4128 13.4054 41.6212 13.653 41.5967 13.7597C41.5539 13.9504 41.3908 14.2015 41.2188 14.2583C40.9461 14.3413 40.6541 14.3427 40.3806 14.2624C39.9044 14.1145 39.461 14.0652 38.986 14.2589C38.674 14.3864 38.3812 14.2525 38.2978 13.9498C38.1865 13.544 38.4996 13.3474 38.8514 13.29C39.2264 13.2291 39.614 13.239 40.0914 13.2123Z" fill="#3C322D"/>
<path d="M47.516 33.2022C47.3808 33.778 47.2779 34.283 47.132 34.7764C47.1034 34.8732 46.8939 35.0037 46.8058 34.9817C46.6475 34.944 46.4249 34.8222 46.3927 34.6958C46.3215 34.4228 46.3134 34.1379 46.3689 33.8615C46.4808 33.3559 46.5909 32.8758 46.3808 32.3591C46.2808 32.1116 46.3094 31.7167 46.6951 31.7179C46.9028 31.7179 47.2017 31.9683 47.2951 32.1753C47.4469 32.5064 47.457 32.8961 47.516 33.2022Z" fill="#3C322D"/>
<path d="M41.6587 33.0543C41.5813 33.1894 41.5438 33.3489 41.442 33.4173C40.8152 33.8383 40.1872 34.261 39.5276 34.6291C39.3592 34.7231 39.0633 34.6651 38.8485 34.603C38.5336 34.512 38.4681 34.1085 38.7294 33.9449C39.4509 33.4944 40.1765 33.0474 40.9199 32.6322C41.039 32.5656 41.2771 32.6375 41.4307 32.7117C41.5348 32.7627 41.5795 32.9274 41.6587 33.0543Z" fill="#3C322D"/>
<path d="M33.6727 6.00631C33.7745 6.06429 33.9662 6.11531 33.9918 6.20693C34.2406 7.10043 34.4805 7.99683 34.6781 8.90135C34.7329 9.15241 34.3918 9.29215 34.1632 9.14198C33.4436 8.67 32.9953 6.92184 33.415 6.19069C33.4584 6.11821 33.5644 6.08168 33.6727 6.00631Z" fill="#3C322D"/>
<path d="M42.5658 8.54418C42.3491 8.40329 42.1152 8.33139 42.0837 8.20963C42.0497 8.07743 42.1616 7.85188 42.2831 7.74577C42.8112 7.28592 43.3635 6.85317 43.9379 6.44929C44.1313 6.31651 44.5331 6.22258 44.6819 6.32637C45.0331 6.567 44.8486 6.90619 44.604 7.15435C44.2754 7.48891 43.9492 7.84144 43.5706 8.11164C43.2801 8.31515 42.9075 8.40271 42.5658 8.54418Z" fill="#3C322D"/>
<path d="M28.8815 13.2651L28.3553 13.7498C28.2053 13.5915 27.9827 13.4599 27.9196 13.2709C27.6672 12.531 27.4559 11.7778 27.2553 11.0229C27.2279 10.9191 27.3148 10.7069 27.4041 10.671C27.5499 10.613 27.7898 10.5898 27.9005 10.671C28.119 10.8281 28.3684 11.0386 28.4398 11.2746C28.6274 11.8892 28.7262 12.5316 28.8815 13.2651Z" fill="#3C322D"/>
<path d="M23.1207 25.6669C22.6379 26.529 22.2712 27.4121 21.3724 27.8824C21.2212 27.9612 20.8867 27.8603 20.7248 27.7345C20.4497 27.5217 20.7248 27.3449 20.8587 27.1634C21.2807 26.5975 21.6706 26.0072 22.1188 25.4628C22.2343 25.323 22.5278 25.254 22.7272 25.2732C22.8629 25.2853 22.9736 25.5103 23.1207 25.6669Z" fill="#3C322D"/>
<path d="M28.5738 25.7399C28.8256 25.882 29.0083 25.9243 29.0422 26.0176C29.0982 26.1707 29.1274 26.4113 29.0422 26.5174C28.9041 26.6868 28.6678 26.7842 28.4642 26.8978C27.9363 27.1929 27.4154 27.5043 26.8666 27.7559C26.6993 27.8325 26.3963 27.8093 26.2475 27.7061C25.941 27.4933 26.0487 27.1523 26.2951 27.0022C27.0487 26.5424 27.841 26.14 28.5738 25.7399Z" fill="#3C322D"/>
<path d="M55.865 21.8354C55.6709 22.2616 55.3983 22.9046 55.0751 23.5227C55.0251 23.6184 54.712 23.6705 54.5792 23.6131C54.456 23.5592 54.3215 23.3174 54.3465 23.1864C54.4763 22.4993 54.6197 21.8099 54.8382 21.1466C54.9048 20.9442 55.206 20.7604 55.4376 20.6926C55.5233 20.6676 55.7477 20.9825 55.8543 21.175C55.915 21.2834 55.865 21.4504 55.865 21.8354Z" fill="#3C322D"/>
<path d="M22.9695 16.7121C23.8236 17.4589 23.7219 18.473 23.8165 19.4094C23.8344 19.5834 23.6123 19.8321 23.4349 19.9579C23.3421 20.024 22.9647 19.9179 22.9558 19.8571C22.8212 18.9114 22.7177 17.9605 22.6349 17.0084C22.6284 16.9272 22.829 16.8281 22.9695 16.7121Z" fill="#3C322D"/>
<path d="M42.9301 39.8371C43.0733 39.874 43.2142 39.9189 43.3522 39.9716C43.8653 40.2035 44.3813 40.4291 44.882 40.6842C45.1201 40.8048 45.3582 40.9556 45.5296 41.1481C45.7266 41.3713 45.5016 41.7998 45.226 41.7412C44.295 41.5452 43.3855 41.2716 42.689 40.5932C42.5861 40.4929 42.5884 40.2418 42.6218 40.0754C42.6414 39.9815 42.8212 39.9165 42.9301 39.8371Z" fill="#3C322D"/>
<path d="M31.6006 16.9852C31.65 17.1354 31.8191 17.3685 31.7596 17.5146C31.4471 18.2886 31.0852 19.0447 30.7167 19.7956C30.6714 19.8878 30.4786 19.9695 30.3643 19.9545C30.2643 19.9423 30.1262 19.8054 30.1 19.7017C29.9048 18.865 30.5203 17.3673 31.2066 16.9904C31.2774 16.9516 31.3905 16.9852 31.6006 16.9852Z" fill="#3C322D"/>
<path d="M58.221 29.6885C58.1139 29.6224 57.8906 29.5418 57.7746 29.3858C57.7281 29.3238 57.8781 29.0408 58.0073 28.9504C58.5799 28.5445 59.1645 28.1566 59.774 27.8099C59.9383 27.7165 60.28 27.7096 60.4008 27.8145C60.5121 27.9119 60.5288 28.2784 60.4282 28.4129C59.9175 29.1063 59.2734 29.6351 58.221 29.6885Z" fill="#3C322D"/>
<path d="M54.684 35.6595C54.2423 35.6148 54.0501 35.6102 53.8661 35.5702C53.7881 35.5534 53.6721 35.4635 53.6709 35.4049C53.6626 35.273 53.6979 35.142 53.7715 35.031C53.8662 34.9261 53.9904 34.8505 54.1286 34.8135C54.8096 34.6141 55.4912 34.414 56.1823 34.2523C56.3323 34.2175 56.6483 34.3137 56.668 34.3972C56.7132 34.5955 56.6591 34.835 56.5793 35.035C56.537 35.1405 56.3686 35.2287 56.2394 35.2669C55.6477 35.4252 55.0537 35.5667 54.684 35.6595Z" fill="#3C322D"/>
<path d="M34.1793 30.8673C34.1305 31.0696 34.0513 31.5178 33.8983 31.9405C33.8602 32.0455 33.5626 32.1463 33.4257 32.1081C33.2888 32.0698 33.1281 31.8501 33.1322 31.7126C33.1465 30.9305 33.1864 30.1471 33.2679 29.3684C33.2852 29.1985 33.5061 29.0489 33.6334 28.8901C33.7858 29.0472 34.0328 29.1858 34.0715 29.3661C34.1579 29.7697 34.1394 30.1941 34.1793 30.8673Z" fill="#3C322D"/>
<path d="M66.0912 6.39238C66.0912 4.73539 66.5025 3.47899 67.325 2.62319C68.1569 1.75827 69.2224 1.32582 70.5216 1.32582C71.8208 1.32582 72.8536 1.6991 73.62 2.44565C74.3958 3.19221 74.7837 4.38488 74.7837 6.02366C74.7837 7.66244 74.3724 8.90063 73.5499 9.73823C72.7274 10.5758 71.6292 10.9946 70.2552 10.9946C69.0682 10.9946 68.0961 10.6623 67.339 9.9977C66.9465 9.65174 66.638 9.17376 66.4137 8.56377C66.1987 7.94467 66.0912 7.22088 66.0912 6.39238ZM70.4795 1.46238C69.5355 1.46238 68.7597 1.87208 68.1522 2.69147C67.554 3.51086 67.2549 4.71263 67.2549 6.29679C67.2549 7.88094 67.54 9.03719 68.1101 9.76554C68.6803 10.4939 69.4374 10.8581 70.3814 10.8581C71.3347 10.8581 72.1105 10.4484 72.7087 9.62897C73.3162 8.80048 73.62 7.60326 73.62 6.03731C73.62 4.46226 73.3302 3.30601 72.7507 2.56856C72.1806 1.83111 71.4235 1.46238 70.4795 1.46238Z" fill="#3C322D"/>
<path d="M77.2086 10.94H76.0449V1.38044H77.2086V5.77784H81.7651V1.38044H82.9287V10.94H81.7651V5.9144H77.2086V10.94Z" fill="#3C322D"/>
<path d="M88.9104 10.94H88.7281L89.9478 1.38044H90.4105L93.3547 10.2162L96.2849 1.38044H96.7476L97.9673 10.94H96.8036L95.8363 3.29236L93.2986 10.94H92.4154L89.8497 3.38795L88.9104 10.94Z" fill="#3C322D"/>
<path d="M105.734 1.38044C105.911 1.55343 106 1.77648 106 2.04961C106 2.27722 105.949 2.50938 105.846 2.74609L103.336 7.70341V10.94H102.173V8.00385L99.3685 1.38044H100.56L103.238 7.53953L105.678 2.74609C105.78 2.51849 105.832 2.28177 105.832 2.03596C105.832 1.79014 105.762 1.59895 105.621 1.46238L105.734 1.38044Z" fill="#3C322D"/>
<path d="M1.97648 13.4518C2.70119 13.4197 3.40943 13.4037 4.1012 13.4037C4.80944 13.4037 5.55062 13.4758 6.32474 13.6202C7.11533 13.7646 7.88946 14.0374 8.64711 14.4385C9.42123 14.8235 10.0718 15.3289 10.5989 15.9546C11.1424 16.5642 11.5789 17.3745 11.9083 18.3852C12.2377 19.3959 12.4024 20.6233 12.4024 22.0672C12.4024 23.5111 12.1554 24.8107 11.6612 25.9658C11.1836 27.1049 10.5248 27.9793 9.68476 28.5889C8.05416 29.7762 6.08592 30.3698 3.78002 30.3698C2.97296 30.3698 2.12472 30.3377 1.2353 30.2735H0V13.4518H1.97648ZM2.0506 30.081C2.39648 30.1131 2.83296 30.1291 3.36002 30.1291C3.88708 30.1291 4.28238 30.1211 4.54591 30.1051C4.80944 30.089 5.17179 30.0248 5.63297 29.9125C6.09415 29.7842 6.52239 29.6157 6.91769 29.4072C7.31298 29.1986 7.72475 28.8938 8.15299 28.4927C8.5977 28.0755 8.97652 27.5862 9.28946 27.0247C9.9977 25.7091 10.3518 23.9924 10.3518 21.8747C10.3518 20.3666 10.1624 19.0671 9.78358 17.9761C9.40476 16.8691 8.96829 16.0508 8.47417 15.5214C7.99652 14.992 7.41181 14.5748 6.72004 14.27C6.02827 13.9491 5.4765 13.7646 5.06473 13.7165C4.65297 13.6684 4.17532 13.6443 3.63179 13.6443C3.08825 13.6443 2.56119 13.6684 2.0506 13.7165V30.081Z" fill="#3C322D"/>
<path d="M66.4923 30.2735H66.1711V13.4277H67.0111L77.2888 28.9981V13.4277H77.61V30.2735H75.8065L66.4923 16.3156V30.2735Z" fill="#3C322D"/>
<path d="M92.8233 13.4277H93.1445V23.0539C93.1445 25.5727 92.6339 27.4258 91.6127 28.613C90.5915 29.7842 89.2574 30.3698 87.6103 30.3698C86.5727 30.3698 85.6915 30.2815 84.9668 30.1051C84.2421 29.9125 83.5586 29.5676 82.9162 29.0703C81.5985 28.0756 80.9397 26.0701 80.9397 23.0539V13.4277H82.9903V23.0298C82.9903 25.9498 83.4433 27.8991 84.3491 28.8777C84.8103 29.359 85.288 29.6879 85.7821 29.8644C86.2927 30.0409 86.9021 30.1291 87.6103 30.1291C89.1915 30.1291 90.4515 29.5676 91.3904 28.4446C92.3457 27.3055 92.8233 25.5005 92.8233 23.0298V13.4277Z" fill="#3C322D"/>
<path d="M101.573 30.2735H99.5221V13.6684H95.248V13.4277H105.872V13.6684H101.573V30.2735Z" fill="#3C322D"/>
</svg>
